HIERARCHY
ROOT root
{
	OFFSET	0	13.1	24.9
	CHANNELS 6  Xposition Yposition Zposition Xrotation Yrotation Zrotation
	JOINT spine_1
	{
		OFFSET	0	9.99999	0
		CHANNELS 3  Xrotation Yrotation Zrotation
		JOINT spine_2
		{
			OFFSET	0	112	-10
			CHANNELS 3  Xrotation Yrotation Zrotation
			JOINT spine_3
			{
				OFFSET	0	206.5	19.3
				CHANNELS 3  Xrotation Yrotation Zrotation
				JOINT spine_4
				{
					OFFSET	0	110.4	14.6
					CHANNELS 3  Xrotation Yrotation Zrotation
					JOINT neck_1
					{
						OFFSET	0	71.8	-50.3
						CHANNELS 3  Xrotation Yrotation Zrotation
						JOINT neck_2
						{
							OFFSET	0	86.2	-25.8
							CHANNELS 3  Xrotation Yrotation Zrotation
							JOINT head_ee
							{
								OFFSET	0	179.8	-8.7
								CHANNELS 3  Xrotation Yrotation Zrotation
								End Site
								{
									OFFSET	1	0	0
								}
							}
						}
					}
					JOINT left_clavicle
					{
						OFFSET	-43.2	22.4	-70.8
						CHANNELS 3  Xrotation Yrotation Zrotation
						JOINT left_shoulder
						{
							OFFSET	-93.9	-5.79999	48.7
							CHANNELS 3  Xrotation Yrotation Zrotation
							JOINT left_elbow
							{
								OFFSET	-291.4	-30.8	15.2
								CHANNELS 3  Xrotation Yrotation Zrotation
								JOINT left_lowarm_twist
								{
									OFFSET	-110.7	-3.89999	13.6
									CHANNELS 3  Xrotation Yrotation Zrotation
									JOINT left_hand
									{
										OFFSET	-110.7	-3.89999	13.6
										CHANNELS 3  Xrotation Yrotation Zrotation
										JOINT left_ee
										{
											OFFSET	-80.8	-5.10001	12.1
											CHANNELS 3  Xrotation Yrotation Zrotation
											End Site
											{
												OFFSET	1	0	0
											}
										}
									}
								}
							}
						}
					}
					JOINT right_clavicle
					{
						OFFSET	43.2	22.4	-70.8
						CHANNELS 3  Xrotation Yrotation Zrotation
						JOINT right_shoulder
						{
							OFFSET	93.9	-5.79999	48.7
							CHANNELS 3  Xrotation Yrotation Zrotation
							JOINT right_elbow
							{
								OFFSET	291.4	-30.8	15.2
								CHANNELS 3  Xrotation Yrotation Zrotation
								JOINT right_lowarm_twist
								{
									OFFSET	110.7	-3.89999	13.6
									CHANNELS 3  Xrotation Yrotation Zrotation
									JOINT right_hand
									{
										OFFSET	110.7	-3.89999	13.6
										CHANNELS 3  Xrotation Yrotation Zrotation
										JOINT right_ee
										{
											OFFSET	80.8	-5.10001	12.1
											CHANNELS 3  Xrotation Yrotation Zrotation
											End Site
											{
												OFFSET	1	0	0
											}
										}
									}
								}
							}
						}
					}
				}
			}
		}
	}
	JOINT left_hip
	{
		OFFSET	-82.8	-127.5	0.300001
		CHANNELS 3  Xrotation Yrotation Zrotation
		JOINT left_knee
		{
			OFFSET	-28.2	-396.7	2.2
			CHANNELS 3  Xrotation Yrotation Zrotation
			JOINT left_ankle
			{
				OFFSET	-11.7	-411.3	35.4
				CHANNELS 3  Xrotation Yrotation Zrotation
				JOINT left_toes
				{
					OFFSET	0	-60	-88.6
					CHANNELS 3  Xrotation Yrotation Zrotation
					JOINT left_foot_ee
					{
						OFFSET	-22.5	-16.5	-42.2
						CHANNELS 3  Xrotation Yrotation Zrotation
						End Site
						{
							OFFSET	1	0	0
						}
					}
				}
			}
		}
	}
	JOINT right_hip
	{
		OFFSET	82.8	-127.5	0.300001
		CHANNELS 3  Xrotation Yrotation Zrotation
		JOINT right_knee
		{
			OFFSET	28.2	-396.7	2.2
			CHANNELS 3  Xrotation Yrotation Zrotation
			JOINT right_ankle
			{
				OFFSET	11.7	-411.3	35.4
				CHANNELS 3  Xrotation Yrotation Zrotation
				JOINT right_toes
				{
					OFFSET	0	-60	-88.6
					CHANNELS 3  Xrotation Yrotation Zrotation
					JOINT right_foot_ee
					{
						OFFSET	22.5	-16.5	-42.2
						CHANNELS 3  Xrotation Yrotation Zrotation
						End Site
						{
							OFFSET	1	0	0
						}
					}
				}
			}
		}
	}
}
MOTION
Frames: 5
Frame Time: 0.02
2561.58894472 742.35 -1533.66150556 -158.987763681 81.5328043409 148.298091891 2.94434 0.80078 6.58938 2.9684 0.380799 6.62676 3.00516 -0.677388 6.60315 2.94457 0.371596 6.62728 -17.2632 3.37713 -11.1847 -17.0958 12.7107 -9.25902 -0.0 0.0 -0.0 -9.58189 9.95614 -15.9157 -6.65109 -41.2825 67.2257 0.23291 -6.58165 0.013392 -11.3703 -0.536439 1.34876 0.708578 11.3447 9.22565 -0.0 0.0 -0.0 10.4026 -22.6493 -17.6083 -13.1768 26.8771 -75.3448 1.57589 37.9745 -0.542259 13.0108 -0.27371 1.63592 0.743681 -3.66148 -6.45848 0.0 0.0 0.0 23.8775 -6.28192 4.56677 -39.9942 -0.466399 5.99748 -7.67099 5.40299 1.14157 -40.1492 0.0 0.0 -0.0 0.0 -0.0 11.8261 4.5906 2.92502 -5.43614 -0.185343 -0.813388 35.0612 -17.9204 4.50803 1.62346 -0.0 -0.0 0.0 0.0 0.0 
2555.2704354 744.53 -1529.54294261 -156.701336448 78.6097318066 146.016269121 3.07674 0.856169 6.77449 3.10215 0.42438 6.81498 3.14403 -0.647629 6.79748 3.07987 0.431467 6.81454 -17.0862 3.00122 -11.1762 -16.8965 12.0174 -9.40637 -0.0 0.0 -0.0 -9.96773 9.70778 -16.7439 -8.00139 -41.5011 67.2429 0.199087 -5.63254 0.00979363 -11.4256 -0.539699 1.35505 0.806552 12.0057 10.1052 -0.0 0.0 -0.0 10.8115 -22.6319 -18.2439 -12.3973 27.414 -75.3147 1.71996 40.428 -0.633339 11.7501 -0.263536 1.47521 0.964106 1.48698 -5.84374 0.0 0.0 0.0 24.8649 -6.70128 4.36056 -34.764 -0.167684 5.25157 -9.29186 2.93244 1.39091 -40.2664 0.0 0.0 -0.0 0.0 -0.0 11.4617 5.31139 2.88008 -2.07492 -0.079855 -0.308399 33.3422 -15.779 4.29974 -1.50922 0.0 0.0 0.0 0.0 0.0 
2551.34118537 747.754 -1520.47477211 -158.685592685 78.3449172806 148.595400968 2.86895 0.983541 6.84664 2.89484 0.546938 6.89503 2.95346 -0.561356 6.89388 2.8876 0.531788 6.89621 -16.5633 2.0737 -11.6351 -16.3006 10.5976 -10.2201 -0.0 0.0 -0.0 -10.3624 8.07711 -18.116 -8.75416 -41.4938 69.0872 0.191476 -5.41853 0.00906088 -11.4239 -0.539595 1.35485 1.04848 13.41 12.1763 -0.0 0.0 -0.0 10.4559 -20.7327 -18.0589 -12.1231 27.7248 -75.4697 1.93106 43.7243 -0.77486 11.943 -0.265322 1.49979 1.63233 5.95843 -8.51545 0.0 0.0 0.0 24.7207 -5.57355 4.01932 -31.283 -0.00721065 4.74165 -7.25658 3.60151 1.08163 -40.2311 0.0 0.0 -0.0 0.0 -0.0 11.2437 6.06562 2.19825 -2.56104 -0.0969434 -0.381048 34.0139 -18.4263 4.40947 -2.24332 0.0 0.0 0.0 0.0 0.0 
2539.8097298 747.083 -1515.24171308 -157.249412346 77.4736426477 147.184385128 2.78098 0.875916 7.20526 2.80974 0.416882 7.2461 2.85498 -0.75969 7.21837 2.78257 0.386762 7.24776 -16.2794 -0.0921965 -13.9191 -15.7975 7.82321 -13.1577 -0.0 0.0 -0.0 -10.3417 8.33894 -17.9781 -11.4238 -39.7721 68.4184 0.194921 -5.51541 0.00938904 -11.1708 -0.524747 1.32608 1.60889 17.2966 17.0975 -0.0 0.0 -0.0 10.7075 -19.6045 -18.6777 -8.94189 28.296 -76.1642 1.98446 44.5051 -0.812035 10.2336 -0.246617 1.28226 1.61191 9.64159 -6.80076 0.0 0.0 0.0 21.5528 -4.03364 4.59669 -13.5722 0.316828 2.05388 5.65678 1.82002 -0.82037 -40.1948 0.0 0.0 -0.0 0.0 -0.0 12.1605 4.7128 2.12731 -5.32145 -0.182233 -0.796062 37.1721 -15.5845 4.67888 -6.63279 0.0 0.0 0.0 0.0 0.0 
2500.34052261 757.131 -1531.46474667 -76.1586408798 81.5312646136 70.2772936685 2.63964 0.825574 6.31468 2.66171 0.422911 6.3542 2.70384 -0.625442 6.33754 2.64804 0.381219 6.35683 -16.1485 -3.31875 -13.4061 -15.6466 1.36793 -13.7575 -0.0 0.0 -0.0 -9.0932 4.44112 -16.8119 -10.2295 -42.5481 67.6261 0.472461 -13.1728 0.0545523 -13.0387 -0.637339 1.53689 3.59968 20.0378 31.2427 -0.0 0.0 -0.0 10.3268 -14.9041 -18.8183 -14.9835 27.1174 -73.0059 1.33144 33.4054 -0.399536 -0.748857 0.0269865 -0.0918257 2.34752 21.8835 -6.16588 0.0 0.0 0.0 16.8929 -6.05813 1.10475 -7.62712 0.238073 1.14546 25.1122 4.23236 -3.34665 -33.6474 0.0 0.0 -0.0 0.0 -0.0 13.8173 3.04009 -1.49918 -6.91851 -0.22241 -1.03785 30.9009 -10.6777 3.99662 -23.0859 0.0 0.0 0.0 0.0 0.0 
